<mxfile host="app.diagrams.net" agent="Mozilla/5.0 (X11; Linux x86_64) AppleWebKit/537.36 (KHTML, like Gecko) Chrome/128.0.0.0 Safari/537.36" version="24.7.7">
  <diagram name="Page-1" id="jW2-Zdyb1En_oISxj4gm">
    <mxGraphModel dx="676" dy="341" grid="1" gridSize="10" guides="1" tooltips="1" connect="1" arrows="1" fold="1" page="1" pageScale="1" pageWidth="850" pageHeight="1100" math="0" shadow="0">
      <root>
        <mxCell id="0" />
        <mxCell id="1" parent="0" />
        <mxCell id="I4BIyV1ahThxxDWiYHZc-25" value="" style="edgeStyle=orthogonalEdgeStyle;rounded=0;orthogonalLoop=1;jettySize=auto;html=1;" parent="1" source="I4BIyV1ahThxxDWiYHZc-2" target="I4BIyV1ahThxxDWiYHZc-3" edge="1">
          <mxGeometry relative="1" as="geometry" />
        </mxCell>
        <mxCell id="I4BIyV1ahThxxDWiYHZc-2" value="Start" style="ellipse;whiteSpace=wrap;html=1;fillColor=#1ba1e2;strokeColor=#006EAF;fontColor=#ffffff;" parent="1" vertex="1">
          <mxGeometry x="365" y="30" width="120" height="80" as="geometry" />
        </mxCell>
        <mxCell id="I4BIyV1ahThxxDWiYHZc-28" value="" style="edgeStyle=orthogonalEdgeStyle;rounded=0;orthogonalLoop=1;jettySize=auto;html=1;" parent="1" source="I4BIyV1ahThxxDWiYHZc-6" target="I4BIyV1ahThxxDWiYHZc-21" edge="1">
          <mxGeometry relative="1" as="geometry" />
        </mxCell>
        <mxCell id="I4BIyV1ahThxxDWiYHZc-3" value="Initialize options array: &quot;rock&quot;, &quot;paper&quot;, &quot;scissors&quot;" style="rounded=0;whiteSpace=wrap;html=1;fillColor=#fa6800;fontColor=#000000;strokeColor=#C73500;" parent="1" vertex="1">
          <mxGeometry x="365" y="140" width="120" height="60" as="geometry" />
        </mxCell>
        <mxCell id="I4BIyV1ahThxxDWiYHZc-32" value="" style="edgeStyle=orthogonalEdgeStyle;rounded=0;orthogonalLoop=1;jettySize=auto;html=1;" parent="1" source="I4BIyV1ahThxxDWiYHZc-9" target="I4BIyV1ahThxxDWiYHZc-10" edge="1">
          <mxGeometry relative="1" as="geometry" />
        </mxCell>
        <mxCell id="I4BIyV1ahThxxDWiYHZc-9" value="&amp;nbsp;&lt;code&gt;getPlayerChoice&lt;/code&gt;" style="rounded=0;whiteSpace=wrap;html=1;fillColor=#fa6800;fontColor=#000000;strokeColor=#C73500;" parent="1" vertex="1">
          <mxGeometry x="365" y="530" width="120" height="60" as="geometry" />
        </mxCell>
        <mxCell id="I4BIyV1ahThxxDWiYHZc-33" value="" style="edgeStyle=orthogonalEdgeStyle;rounded=0;orthogonalLoop=1;jettySize=auto;html=1;" parent="1" source="I4BIyV1ahThxxDWiYHZc-10" target="I4BIyV1ahThxxDWiYHZc-24" edge="1">
          <mxGeometry relative="1" as="geometry" />
        </mxCell>
        <mxCell id="I4BIyV1ahThxxDWiYHZc-10" value="Get Computer Choice" style="rounded=0;whiteSpace=wrap;html=1;fillColor=#fa6800;fontColor=#000000;strokeColor=#C73500;" parent="1" vertex="1">
          <mxGeometry x="365" y="620" width="120" height="60" as="geometry" />
        </mxCell>
        <mxCell id="I4BIyV1ahThxxDWiYHZc-37" value="" style="edgeStyle=orthogonalEdgeStyle;rounded=0;orthogonalLoop=1;jettySize=auto;html=1;" parent="1" source="I4BIyV1ahThxxDWiYHZc-12" target="I4BIyV1ahThxxDWiYHZc-13" edge="1">
          <mxGeometry relative="1" as="geometry" />
        </mxCell>
        <mxCell id="I4BIyV1ahThxxDWiYHZc-48" value="" style="edgeStyle=orthogonalEdgeStyle;rounded=0;orthogonalLoop=1;jettySize=auto;html=1;" parent="1" source="I4BIyV1ahThxxDWiYHZc-12" target="I4BIyV1ahThxxDWiYHZc-44" edge="1">
          <mxGeometry relative="1" as="geometry" />
        </mxCell>
        <mxCell id="I4BIyV1ahThxxDWiYHZc-49" value="" style="edgeStyle=orthogonalEdgeStyle;rounded=0;orthogonalLoop=1;jettySize=auto;html=1;" parent="1" source="I4BIyV1ahThxxDWiYHZc-12" target="I4BIyV1ahThxxDWiYHZc-47" edge="1">
          <mxGeometry relative="1" as="geometry" />
        </mxCell>
        <mxCell id="I4BIyV1ahThxxDWiYHZc-12" value="Winner?" style="rounded=0;whiteSpace=wrap;html=1;fillColor=#6d8764;fontColor=#ffffff;strokeColor=#3A5431;" parent="1" vertex="1">
          <mxGeometry x="365" y="830" width="120" height="60" as="geometry" />
        </mxCell>
        <mxCell id="I4BIyV1ahThxxDWiYHZc-36" value="" style="edgeStyle=orthogonalEdgeStyle;rounded=0;orthogonalLoop=1;jettySize=auto;html=1;" parent="1" source="I4BIyV1ahThxxDWiYHZc-13" target="I4BIyV1ahThxxDWiYHZc-14" edge="1">
          <mxGeometry relative="1" as="geometry" />
        </mxCell>
        <mxCell id="I4BIyV1ahThxxDWiYHZc-13" value="Tie" style="rounded=0;whiteSpace=wrap;html=1;fillColor=#fa6800;strokeColor=#C73500;fontColor=#000000;" parent="1" vertex="1">
          <mxGeometry x="365" y="930" width="120" height="60" as="geometry" />
        </mxCell>
        <mxCell id="I4BIyV1ahThxxDWiYHZc-54" value="" style="edgeStyle=orthogonalEdgeStyle;rounded=0;orthogonalLoop=1;jettySize=auto;html=1;" parent="1" source="I4BIyV1ahThxxDWiYHZc-14" target="I4BIyV1ahThxxDWiYHZc-43" edge="1">
          <mxGeometry relative="1" as="geometry" />
        </mxCell>
        <mxCell id="I4BIyV1ahThxxDWiYHZc-14" value="&quot;It&#39;s a Tie!&quot;" style="rounded=0;whiteSpace=wrap;html=1;fillColor=#b1ddf0;strokeColor=#10739e;" parent="1" vertex="1">
          <mxGeometry x="365.5" y="1020" width="120" height="60" as="geometry" />
        </mxCell>
        <mxCell id="I4BIyV1ahThxxDWiYHZc-53" value="" style="edgeStyle=orthogonalEdgeStyle;rounded=0;orthogonalLoop=1;jettySize=auto;html=1;" parent="1" source="I4BIyV1ahThxxDWiYHZc-16" target="I4BIyV1ahThxxDWiYHZc-52" edge="1">
          <mxGeometry relative="1" as="geometry" />
        </mxCell>
        <mxCell id="I4BIyV1ahThxxDWiYHZc-16" value="&quot;You Win! playerSelection beats computerSelection&quot;" style="rounded=0;whiteSpace=wrap;html=1;fillColor=#fa6800;strokeColor=#C73500;fontColor=#000000;" parent="1" vertex="1">
          <mxGeometry x="170" y="920" width="120" height="60" as="geometry" />
        </mxCell>
        <mxCell id="I4BIyV1ahThxxDWiYHZc-55" value="" style="edgeStyle=orthogonalEdgeStyle;rounded=0;orthogonalLoop=1;jettySize=auto;html=1;" parent="1" source="I4BIyV1ahThxxDWiYHZc-17" target="I4BIyV1ahThxxDWiYHZc-18" edge="1">
          <mxGeometry relative="1" as="geometry" />
        </mxCell>
        <mxCell id="I4BIyV1ahThxxDWiYHZc-17" value="&quot;You Lose! computerSelection beats playerSelection&quot;" style="rounded=0;whiteSpace=wrap;html=1;fillColor=#b1ddf0;strokeColor=#10739e;" parent="1" vertex="1">
          <mxGeometry x="540" y="920" width="120" height="60" as="geometry" />
        </mxCell>
        <mxCell id="I4BIyV1ahThxxDWiYHZc-18" value="End of Round" style="rounded=0;whiteSpace=wrap;html=1;fillColor=#6d8764;fontColor=#ffffff;strokeColor=#3A5431;" parent="1" vertex="1">
          <mxGeometry x="540" y="1110" width="120" height="60" as="geometry" />
        </mxCell>
        <mxCell id="I4BIyV1ahThxxDWiYHZc-30" value="" style="edgeStyle=orthogonalEdgeStyle;rounded=0;orthogonalLoop=1;jettySize=auto;html=1;" parent="1" source="I4BIyV1ahThxxDWiYHZc-21" target="I4BIyV1ahThxxDWiYHZc-22" edge="1">
          <mxGeometry relative="1" as="geometry" />
        </mxCell>
        <mxCell id="I4BIyV1ahThxxDWiYHZc-21" value="&lt;strong&gt;Output&lt;/strong&gt;: &quot;Welcome!&quot;" style="shape=parallelogram;perimeter=parallelogramPerimeter;whiteSpace=wrap;html=1;fixedSize=1;fillColor=#647687;fontColor=#ffffff;strokeColor=#314354;" parent="1" vertex="1">
          <mxGeometry x="350" y="320" width="150" height="60" as="geometry" />
        </mxCell>
        <mxCell id="I4BIyV1ahThxxDWiYHZc-31" value="" style="edgeStyle=orthogonalEdgeStyle;rounded=0;orthogonalLoop=1;jettySize=auto;html=1;" parent="1" source="I4BIyV1ahThxxDWiYHZc-22" target="I4BIyV1ahThxxDWiYHZc-9" edge="1">
          <mxGeometry relative="1" as="geometry" />
        </mxCell>
        <mxCell id="I4BIyV1ahThxxDWiYHZc-22" value="&lt;strong&gt;Loop 5 times&lt;/strong&gt;" style="rhombus;whiteSpace=wrap;html=1;" parent="1" vertex="1">
          <mxGeometry x="373" y="410" width="105" height="90" as="geometry" />
        </mxCell>
        <mxCell id="I4BIyV1ahThxxDWiYHZc-35" value="" style="edgeStyle=orthogonalEdgeStyle;rounded=0;orthogonalLoop=1;jettySize=auto;html=1;" parent="1" source="I4BIyV1ahThxxDWiYHZc-24" target="I4BIyV1ahThxxDWiYHZc-12" edge="1">
          <mxGeometry relative="1" as="geometry" />
        </mxCell>
        <mxCell id="I4BIyV1ahThxxDWiYHZc-24" value="check winner()" style="rhombus;whiteSpace=wrap;html=1;" parent="1" vertex="1">
          <mxGeometry x="385" y="720" width="80" height="80" as="geometry" />
        </mxCell>
        <mxCell id="I4BIyV1ahThxxDWiYHZc-29" value="" style="edgeStyle=orthogonalEdgeStyle;rounded=0;orthogonalLoop=1;jettySize=auto;html=1;" parent="1" source="I4BIyV1ahThxxDWiYHZc-3" target="I4BIyV1ahThxxDWiYHZc-6" edge="1">
          <mxGeometry relative="1" as="geometry">
            <mxPoint x="425" y="200" as="sourcePoint" />
            <mxPoint x="415" y="310" as="targetPoint" />
          </mxGeometry>
        </mxCell>
        <mxCell id="I4BIyV1ahThxxDWiYHZc-6" value="Call game() function" style="rounded=0;whiteSpace=wrap;html=1;fillColor=#fa6800;fontColor=#000000;strokeColor=#C73500;" parent="1" vertex="1">
          <mxGeometry x="365" y="230" width="120" height="60" as="geometry" />
        </mxCell>
        <mxCell id="I4BIyV1ahThxxDWiYHZc-63" style="edgeStyle=orthogonalEdgeStyle;rounded=0;orthogonalLoop=1;jettySize=auto;html=1;" parent="1" source="I4BIyV1ahThxxDWiYHZc-43" target="I4BIyV1ahThxxDWiYHZc-56" edge="1">
          <mxGeometry relative="1" as="geometry" />
        </mxCell>
        <mxCell id="I4BIyV1ahThxxDWiYHZc-43" value="End of Round" style="rounded=0;whiteSpace=wrap;html=1;fillColor=#6d8764;fontColor=#ffffff;strokeColor=#3A5431;" parent="1" vertex="1">
          <mxGeometry x="365.5" y="1110" width="120" height="60" as="geometry" />
        </mxCell>
        <mxCell id="I4BIyV1ahThxxDWiYHZc-50" value="" style="edgeStyle=orthogonalEdgeStyle;rounded=0;orthogonalLoop=1;jettySize=auto;html=1;" parent="1" source="I4BIyV1ahThxxDWiYHZc-44" target="I4BIyV1ahThxxDWiYHZc-16" edge="1">
          <mxGeometry relative="1" as="geometry" />
        </mxCell>
        <mxCell id="I4BIyV1ahThxxDWiYHZc-44" value="&lt;span style=&quot;color: rgb(0, 0, 0); font-family: Helvetica; font-size: 12px; font-style: normal; font-variant-ligatures: normal; font-variant-caps: normal; font-weight: 400; letter-spacing: normal; orphans: 2; text-align: center; text-indent: 0px; text-transform: none; widows: 2; word-spacing: 0px; -webkit-text-stroke-width: 0px; white-space: normal; background-color: rgb(251, 251, 251); text-decoration-thickness: initial; text-decoration-style: initial; text-decoration-color: initial; display: inline !important; float: none;&quot;&gt;Player Wins&lt;/span&gt;" style="rounded=0;whiteSpace=wrap;html=1;fillColor=#fa6800;fontColor=#000000;strokeColor=#C73500;" parent="1" vertex="1">
          <mxGeometry x="170" y="830" width="120" height="60" as="geometry" />
        </mxCell>
        <mxCell id="I4BIyV1ahThxxDWiYHZc-51" value="" style="edgeStyle=orthogonalEdgeStyle;rounded=0;orthogonalLoop=1;jettySize=auto;html=1;" parent="1" source="I4BIyV1ahThxxDWiYHZc-47" target="I4BIyV1ahThxxDWiYHZc-17" edge="1">
          <mxGeometry relative="1" as="geometry" />
        </mxCell>
        <mxCell id="I4BIyV1ahThxxDWiYHZc-47" value="&lt;span style=&quot;color: rgb(0, 0, 0); font-family: Helvetica; font-size: 12px; font-style: normal; font-variant-ligatures: normal; font-variant-caps: normal; font-weight: 400; letter-spacing: normal; orphans: 2; text-align: center; text-indent: 0px; text-transform: none; widows: 2; word-spacing: 0px; -webkit-text-stroke-width: 0px; white-space: normal; background-color: rgb(251, 251, 251); text-decoration-thickness: initial; text-decoration-style: initial; text-decoration-color: initial; display: inline !important; float: none;&quot;&gt;Computer Wins&lt;/span&gt;" style="rounded=0;whiteSpace=wrap;html=1;fillColor=#fa6800;fontColor=#000000;strokeColor=#C73500;" parent="1" vertex="1">
          <mxGeometry x="540" y="830" width="120" height="60" as="geometry" />
        </mxCell>
        <mxCell id="I4BIyV1ahThxxDWiYHZc-62" style="edgeStyle=orthogonalEdgeStyle;rounded=0;orthogonalLoop=1;jettySize=auto;html=1;entryX=0;entryY=0.5;entryDx=0;entryDy=0;" parent="1" source="I4BIyV1ahThxxDWiYHZc-52" target="I4BIyV1ahThxxDWiYHZc-56" edge="1">
          <mxGeometry relative="1" as="geometry" />
        </mxCell>
        <mxCell id="I4BIyV1ahThxxDWiYHZc-52" value="End of Round" style="rounded=0;whiteSpace=wrap;html=1;fillColor=#6d8764;fontColor=#ffffff;strokeColor=#3A5431;" parent="1" vertex="1">
          <mxGeometry x="170" y="1110" width="120" height="60" as="geometry" />
        </mxCell>
        <mxCell id="I4BIyV1ahThxxDWiYHZc-56" value="End" style="ellipse;whiteSpace=wrap;html=1;fillColor=#1ba1e2;fontColor=#ffffff;strokeColor=#006EAF;" parent="1" vertex="1">
          <mxGeometry x="390" y="1300" width="120" height="80" as="geometry" />
        </mxCell>
        <mxCell id="I4BIyV1ahThxxDWiYHZc-65" style="edgeStyle=orthogonalEdgeStyle;rounded=0;orthogonalLoop=1;jettySize=auto;html=1;entryX=1.01;entryY=0.645;entryDx=0;entryDy=0;entryPerimeter=0;" parent="1" source="I4BIyV1ahThxxDWiYHZc-18" target="I4BIyV1ahThxxDWiYHZc-56" edge="1">
          <mxGeometry relative="1" as="geometry" />
        </mxCell>
      </root>
    </mxGraphModel>
  </diagram>
</mxfile>
